<?xml version="1.0" encoding="UTF-8"?>
<!DOCTYPE svg PUBLIC "-//W3C//DTD SVG 1.1//EN" "http://www.w3.org/Graphics/SVG/1.1/DTD/svg11.dtd">
<svg xmlns="http://www.w3.org/2000/svg" version="1.1" width="522px" height="521px"
     style="shape-rendering:geometricPrecision; text-rendering:geometricPrecision; image-rendering:optimizeQuality; fill-rule:evenodd; clip-rule:evenodd">
<g><path style="opacity:0.996" fill="#070707" d="M 338.5,12.5 C 344.003,16.5627 350.337,18.896 357.5,19.5C 377.737,28.9506 397.07,39.9506 415.5,52.5C 420.538,57.2053 425.871,61.5387 431.5,65.5C 433.167,66.8333 434.833,68.1667 436.5,69.5C 436.427,71.0269 437.094,72.0269 438.5,72.5C 450.207,81.9843 459.54,92.8176 466.5,105C 480.972,123.288 491.972,142.121 499.5,161.5C 504.227,173.183 508.061,185.183 511,197.5C 511.383,198.056 511.883,198.389 512.5,198.5C 514.664,212.82 516.831,227.154 519,241.5C 519.5,250.494 519.666,259.494 519.5,268.5C 517.06,309.93 506.06,348.93 486.5,385.5C 480.775,397.115 473.441,407.615 464.5,417C 464.833,417.333 465.167,417.667 465.5,418C 461.439,421.573 457.939,425.74 455,430.5C 443.878,440.655 433.045,451.155 422.5,462C 407.235,473.914 390.902,484.247 373.5,493C 366.492,494.89 359.825,497.556 353.5,501C 344.178,503.941 334.845,506.774 325.5,509.5C 325.44,508.957 325.107,508.624 324.5,508.5C 309.11,512.843 293.444,515.676 277.5,517C 276.748,517.671 276.414,518.504 276.5,519.5C 265.5,519.5 254.5,519.5 243.5,519.5C 244.952,518.698 246.618,518.198 248.5,518C 219.872,515.577 192.205,509.411 165.5,499.5C 147.538,492.686 130.871,483.519 115.5,472C 73.7991,440.973 42.2991,402.14 21,355.5C 19.8644,352.904 19.031,350.237 18.5,347.5C 17.1477,341.272 15.481,335.106 13.5,329C 13.1639,327.97 12.4972,327.47 11.5,327.5C -0.541307,274.857 2.29203,222.524 20,170.5C 25.5361,157.902 30.3694,145.902 34.5,134.5C 37.4152,132.349 39.0819,129.349 39.5,125.5C 42.7438,121.349 45.7438,117.016 48.5,112.5C 50.1964,110.475 51.863,108.475 53.5,106.5C 68.5,85.5 86.5,67.5 107.5,52.5C 120.095,42.5225 133.762,34.0225 148.5,27C 163.835,20.1673 179.501,14.1673 195.5,9C 210.181,6.75981 224.848,4.42648 239.5,2C 273.225,-0.768277 306.225,2.73172 338.5,12.5 Z"/></g>
<g><path style="opacity:0.741" fill="#656464" d="M 338.5,12.5 C 345.127,14.2621 351.461,16.5955 357.5,19.5C 350.337,18.896 344.003,16.5627 338.5,12.5 Z"/></g>
<g><path style="opacity:1" fill="#fdfdfd" d="M 302.5,21.5 C 305.123,23.2655 308.123,23.9321 311.5,23.5C 358.532,33.6025 398.866,55.6025 432.5,89.5C 380.883,130.447 329.55,171.78 278.5,213.5C 272.216,211.627 265.883,209.961 259.5,208.5C 254.769,208.841 250.102,209.508 245.5,210.5C 239.892,205.076 233.225,201.576 225.5,200C 212.584,194.226 200.584,187.059 189.5,178.5C 188.21,180.657 187.376,182.99 187,185.5C 186.505,183.527 186.338,181.527 186.5,179.5C 186.646,175.481 186.979,171.481 187.5,167.5C 187.264,164.391 187.597,161.391 188.5,158.5C 190.217,155.155 190.884,151.489 190.5,147.5C 190.5,146.833 190.5,146.167 190.5,145.5C 192.04,143.162 192.706,140.495 192.5,137.5C 194.124,131.595 194.624,125.595 194,119.5C 192.908,116.956 192.241,114.289 192,111.5C 191.292,110.619 190.458,109.953 189.5,109.5C 188.833,106.833 187.167,105.167 184.5,104.5C 177.226,102.746 170.226,103.579 163.5,107C 155.823,115.342 147.156,122.509 137.5,128.5C 137.062,128.565 136.728,128.399 136.5,128C 138.019,126.649 139.352,125.149 140.5,123.5C 135.532,115.23 131.365,106.563 128,97.5C 125.942,86.9323 123.109,76.599 119.5,66.5C 118.5,67.1667 117.5,67.8333 116.5,68.5C 115.537,68.0302 115.537,67.3635 116.5,66.5C 143.431,46.205 173.431,32.0383 206.5,24C 238.352,17.6918 270.352,16.8585 302.5,21.5 Z"/></g>
<g><path style="opacity:1" fill="#a9a8a8" d="M 302.5,21.5 C 305.781,21.4203 308.781,22.087 311.5,23.5C 308.123,23.9321 305.123,23.2655 302.5,21.5 Z"/></g>
<g><path style="opacity:0.122" fill="#7f7f7f" d="M 357.5,19.5 C 379.293,26.3903 398.626,37.3903 415.5,52.5C 397.07,39.9506 377.737,28.9506 357.5,19.5 Z"/></g>
<g><path style="opacity:0.318" fill="#727272" d="M 415.5,52.5 C 421.303,55.1156 426.47,58.7823 431,63.5C 431.464,64.0944 431.631,64.7611 431.5,65.5C 425.871,61.5387 420.538,57.2053 415.5,52.5 Z"/></g>
<g><path style="opacity:0.286" fill="#757575" d="M 436.5,69.5 C 438.824,69.8773 439.491,70.8773 438.5,72.5C 437.094,72.0269 436.427,71.0269 436.5,69.5 Z"/></g>
<g><path style="opacity:1" fill="#f1f1f1" d="M 116.5,66.5 C 115.537,67.3635 115.537,68.0302 116.5,68.5C 117.5,67.8333 118.5,67.1667 119.5,66.5C 123.109,76.599 125.942,86.9323 128,97.5C 131.365,106.563 135.532,115.23 140.5,123.5C 139.352,125.149 138.019,126.649 136.5,128C 136.728,128.399 137.062,128.565 137.5,128.5C 131.074,134.594 124.074,139.927 116.5,144.5C 115.761,144.631 115.094,144.464 114.5,144C 115.451,143.282 115.617,142.449 115,141.5C 99.3311,128.838 89.8311,112.505 86.5,92.5C 95.6083,82.7194 105.608,74.0528 116.5,66.5 Z"/></g>
<g><path style="opacity:1" fill="#6e6e6e" d="M 107.5,52.5 C 86.5,67.5 68.5,85.5 53.5,106.5C 55.3608,101.86 57.6941,98.0264 60.5,95C 60.1667,94.6667 59.8333,94.3333 59.5,94C 62.4281,92.7402 64.2614,90.5735 65,87.5C 75.0714,77.884 85.238,68.384 95.5,59C 99.0751,56.0458 103.075,53.8792 107.5,52.5 Z"/></g>
<g><path style="opacity:1" fill="#e9e9e9" d="M 86.5,92.5 C 89.8311,112.505 99.3311,128.838 115,141.5C 115.617,142.449 115.451,143.282 114.5,144C 115.094,144.464 115.761,144.631 116.5,144.5C 113.149,147.848 109.482,150.848 105.5,153.5C 96.6428,141.908 86.8095,130.908 76,120.5C 75.7583,114.833 75.9249,109.167 76.5,103.5C 79.1231,99.2092 82.4564,95.5425 86.5,92.5 Z"/></g>
<g><path style="opacity:1" fill="#a7a6a5" d="M 184.5,104.5 C 187.167,105.167 188.833,106.833 189.5,109.5C 187.5,108.167 185.833,106.5 184.5,104.5 Z"/></g>
<g><path style="opacity:1" fill="#e1e1e1" d="M 76.5,103.5 C 75.9249,109.167 75.7583,114.833 76,120.5C 86.8095,130.908 96.6428,141.908 105.5,153.5C 100.872,157.156 96.2056,160.822 91.5,164.5C 87.59,161.586 83.2567,158.252 78.5,154.5C 74.8818,149.802 71.2152,145.635 67.5,142C 63.2179,138.195 58.8846,134.695 54.5,131.5C 60.72,121.281 68.0534,111.948 76.5,103.5 Z"/></g>
<g><path style="opacity:0.532" fill="#c0c0c0" d="M 48.5,112.5 C 45.7438,117.016 42.7438,121.349 39.5,125.5C 39.1667,125.5 38.8333,125.5 38.5,125.5C 39.0218,122.432 39.8551,119.432 41,116.5C 42,115.167 43,115.167 44,116.5C 45.3712,114.959 46.8712,113.625 48.5,112.5 Z"/></g>
<g><path style="opacity:0.431" fill="#707070" d="M 38.5,125.5 C 38.8333,125.5 39.1667,125.5 39.5,125.5C 39.0819,129.349 37.4152,132.349 34.5,134.5C 35.4617,131.261 36.7951,128.261 38.5,125.5 Z"/></g>
<g><path style="opacity:1" fill="#e8e8e8" d="M 481.5,160.5 C 481.649,161.552 481.483,162.552 481,163.5C 479.587,160.339 477.92,157.339 476,154.5C 462.431,170.07 447.598,184.237 431.5,197C 429.205,200.297 426.538,203.297 423.5,206C 411.703,208.892 400.703,214.058 390.5,221.5C 391.653,222.687 391.653,223.687 390.5,224.5C 388.243,222.836 386.577,220.669 385.5,218C 387.824,214.502 390.49,211.336 393.5,208.5C 395.587,207.415 396.92,205.749 397.5,203.5C 402.157,197.511 407.157,191.844 412.5,186.5C 414.587,185.415 415.92,183.749 416.5,181.5C 432.164,163.667 447.664,145.667 463,127.5C 470.221,137.944 476.387,148.944 481.5,160.5 Z"/></g>
<g><path style="opacity:1" fill="#cccccc" d="M 54.5,131.5 C 58.8846,134.695 63.2179,138.195 67.5,142C 71.2152,145.635 74.8818,149.802 78.5,154.5C 83.2567,158.252 87.59,161.586 91.5,164.5C 82.819,172.512 73.819,180.179 64.5,187.5C 62.1582,187.225 62.1582,186.392 64.5,185C 57.5455,171.921 52.7121,158.088 50,143.5C 49.2515,145.332 48.2515,146.999 47,148.5C 46.5357,147.906 46.369,147.239 46.5,146.5C 48.4068,141.016 51.0734,136.016 54.5,131.5 Z"/></g>
<g><path style="opacity:1" fill="#5f5f5f" d="M 192.5,137.5 C 192.706,140.495 192.04,143.162 190.5,145.5C 190.565,142.572 191.232,139.905 192.5,137.5 Z"/></g>
<g><path style="opacity:1" fill="#878787" d="M 190.5,147.5 C 190.884,151.489 190.217,155.155 188.5,158.5C 188.808,154.64 189.475,150.974 190.5,147.5 Z"/></g>
<g><path style="opacity:1" fill="#e3e3e3" d="M 481.5,160.5 C 484.355,166.224 486.688,172.224 488.5,178.5C 488.631,179.239 488.464,179.906 488,180.5C 487.333,179.167 486.667,177.833 486,176.5C 480.98,179.685 476.48,183.518 472.5,188C 459.072,195.965 446.405,202.632 434.5,208C 433.547,209.955 432.213,211.622 430.5,213C 425.239,215.545 420.406,218.712 416,222.5C 415.798,224.256 415.298,225.922 414.5,227.5C 410.488,230.354 406.155,232.52 401.5,234C 400.855,236.302 400.522,238.468 400.5,240.5C 396.986,235.309 393.652,229.976 390.5,224.5C 391.653,223.687 391.653,222.687 390.5,221.5C 400.703,214.058 411.703,208.892 423.5,206C 426.538,203.297 429.205,200.297 431.5,197C 447.598,184.237 462.431,170.07 476,154.5C 477.92,157.339 479.587,160.339 481,163.5C 481.483,162.552 481.649,161.552 481.5,160.5 Z"/></g>
<g><path style="opacity:1" fill="#bbbbbb" d="M 64.5,187.5 C 50.8626,200.301 37.0292,212.967 23,225.5C 24.0047,215.454 25.6714,205.454 28,195.5C 32.5322,178.384 38.6989,162.051 46.5,146.5C 46.369,147.239 46.5357,147.906 47,148.5C 48.2515,146.999 49.2515,145.332 50,143.5C 52.7121,158.088 57.5455,171.921 64.5,185C 62.1582,186.392 62.1582,187.225 64.5,187.5 Z"/></g>
<g><path style="opacity:1" fill="#515151" d="M 499.5,161.5 C 506.382,172.806 510.715,185.139 512.5,198.5C 511.883,198.389 511.383,198.056 511,197.5C 508.061,185.183 504.227,173.183 499.5,161.5 Z"/></g>
<g><path style="opacity:1" fill="#737272" d="M 146.5,177.5 C 146.472,180.916 145.472,183.916 143.5,186.5C 143.928,183.215 144.928,180.215 146.5,177.5 Z"/></g>
<g><path style="opacity:1" fill="#7c7c7b" d="M 187.5,167.5 C 186.979,171.481 186.646,175.481 186.5,179.5C 185.382,185.542 184.048,191.542 182.5,197.5C 183.322,187.233 184.989,177.233 187.5,167.5 Z"/></g>
<g><path style="opacity:1" fill="#e0e0e0" d="M 146.5,177.5 C 144.928,180.215 143.928,183.215 143.5,186.5C 140.553,195.401 137.886,204.401 135.5,213.5C 135.167,213.5 134.833,213.5 134.5,213.5C 133.778,213.918 133.278,214.584 133,215.5C 125.439,207.117 117.272,199.284 108.5,192C 111.039,189.63 113.372,187.13 115.5,184.5C 128.196,172.14 141.529,160.473 155.5,149.5C 155.833,149.833 156.167,150.167 156.5,150.5C 152.711,159.32 149.377,168.32 146.5,177.5 Z"/></g>
<g><path style="opacity:1" fill="#8f8f8f" d="M 416.5,181.5 C 415.92,183.749 414.587,185.415 412.5,186.5C 413.08,184.251 414.413,182.585 416.5,181.5 Z"/></g>
<g><path style="opacity:1" fill="#d9d9d9" d="M 488.5,178.5 C 490.587,182.49 491.92,186.823 492.5,191.5C 493.548,195.461 494.048,199.461 494,203.5C 493.489,201.122 492.822,198.788 492,196.5C 483.537,205.421 475.537,214.754 468,224.5C 466.538,230.051 468.705,233.218 474.5,234C 476.633,236.51 479.133,238.676 482,240.5C 486.996,248.819 488.663,257.819 487,267.5C 483.137,276.678 476.303,279.845 466.5,277C 459.751,274.584 455.418,269.918 453.5,263C 452.169,256.195 451.003,249.362 450,242.5C 446.632,241.17 443.465,241.67 440.5,244C 430.988,250.657 421.488,256.491 412,261.5C 411.667,261.167 411.333,260.833 411,260.5C 410.764,262.119 409.931,263.119 408.5,263.5C 406,255.862 403.333,248.196 400.5,240.5C 400.522,238.468 400.855,236.302 401.5,234C 406.155,232.52 410.488,230.354 414.5,227.5C 415.298,225.922 415.798,224.256 416,222.5C 420.406,218.712 425.239,215.545 430.5,213C 432.213,211.622 433.547,209.955 434.5,208C 446.405,202.632 459.072,195.965 472.5,188C 476.48,183.518 480.98,179.685 486,176.5C 486.667,177.833 487.333,179.167 488,180.5C 488.464,179.906 488.631,179.239 488.5,178.5 Z"/></g>
<g><path style="opacity:1" fill="#f1f1f1" d="M 278.5,213.5 C 268.204,222.314 257.538,230.647 246.5,238.5C 245.761,238.631 245.094,238.464 244.5,238C 245.833,236.16 245.666,235.66 244,236.5C 242.328,233.486 240.328,231.486 238,230.5C 237.667,230.833 237.333,231.167 237,231.5C 235.085,229.122 232.585,227.622 229.5,227C 226.5,226.667 223.5,226.333 220.5,226C 208.34,220.752 196.34,215.252 184.5,209.5C 182.677,213.009 181.344,216.009 180.5,218.5C 181.08,214.19 181.414,209.857 181.5,205.5C 181.194,202.615 181.527,199.948 182.5,197.5C 184.048,191.542 185.382,185.542 186.5,179.5C 186.338,181.527 186.505,183.527 187,185.5C 187.376,182.99 188.21,180.657 189.5,178.5C 200.584,187.059 212.584,194.226 225.5,200C 233.225,201.576 239.892,205.076 245.5,210.5C 250.102,209.508 254.769,208.841 259.5,208.5C 265.883,209.961 272.216,211.627 278.5,213.5 Z"/></g>
<g><path style="opacity:1" fill="#d0d0d0" d="M 492.5,191.5 C 496.047,199.697 498.047,208.364 498.5,217.5C 498.663,219.857 498.497,222.19 498,224.5C 497.333,221.167 496.667,217.833 496,214.5C 491.507,219.82 488.341,225.82 486.5,232.5C 491.643,245.642 492.476,258.976 489,272.5C 487.5,275.333 485.333,277.5 482.5,279C 472.792,281.639 463.959,280.473 456,275.5C 453.073,270.881 450.24,266.214 447.5,261.5C 445.892,260.682 444.225,260.015 442.5,259.5C 432.383,261.761 422.383,265.094 412.5,269.5C 412.869,271.993 412.203,272.66 410.5,271.5C 409.232,269.095 408.565,266.428 408.5,263.5C 409.931,263.119 410.764,262.119 411,260.5C 411.333,260.833 411.667,261.167 412,261.5C 421.488,256.491 430.988,250.657 440.5,244C 443.465,241.67 446.632,241.17 450,242.5C 451.003,249.362 452.169,256.195 453.5,263C 455.418,269.918 459.751,274.584 466.5,277C 476.303,279.845 483.137,276.678 487,267.5C 488.663,257.819 486.996,248.819 482,240.5C 479.133,238.676 476.633,236.51 474.5,234C 468.705,233.218 466.538,230.051 468,224.5C 475.537,214.754 483.537,205.421 492,196.5C 492.822,198.788 493.489,201.122 494,203.5C 494.048,199.461 493.548,195.461 492.5,191.5 Z"/></g>
<g><path style="opacity:1" fill="#d1d1d1" d="M 115.5,184.5 C 113.372,187.13 111.039,189.63 108.5,192C 117.272,199.284 125.439,207.117 133,215.5C 133.278,214.584 133.778,213.918 134.5,213.5C 133.167,218.5 131.833,223.5 130.5,228.5C 129.752,231.905 128.752,235.238 127.5,238.5C 115.251,229.746 104.418,218.746 95,205.5C 94.2825,206.451 93.4491,206.617 92.5,206C 94.3734,204.296 96.0401,202.463 97.5,200.5C 102.739,194.229 108.739,188.896 115.5,184.5 Z"/></g>
<g><path style="opacity:1" fill="#9b9b9b" d="M 397.5,203.5 C 396.92,205.749 395.587,207.415 393.5,208.5C 394.08,206.251 395.413,204.585 397.5,203.5 Z"/></g>
<g><path style="opacity:1" fill="#eaeaea" d="M 246.5,238.5 C 242.413,242.922 237.746,246.589 232.5,249.5C 231.04,247.229 228.707,245.062 225.5,243C 221.162,241.318 216.996,241.818 213,244.5C 202.264,237.161 191.597,229.828 181,222.5C 180.667,223.833 180.333,225.167 180,226.5C 179.536,225.906 179.369,225.239 179.5,224.5C 179.205,222.265 179.539,220.265 180.5,218.5C 181.344,216.009 182.677,213.009 184.5,209.5C 196.34,215.252 208.34,220.752 220.5,226C 223.5,226.333 226.5,226.667 229.5,227C 232.585,227.622 235.085,229.122 237,231.5C 237.333,231.167 237.667,230.833 238,230.5C 240.328,231.486 242.328,233.486 244,236.5C 245.666,235.66 245.833,236.16 244.5,238C 245.094,238.464 245.761,238.631 246.5,238.5 Z"/></g>
<g><path style="opacity:1" fill="#999898" d="M 181.5,205.5 C 181.414,209.857 181.08,214.19 180.5,218.5C 179.539,220.265 179.205,222.265 179.5,224.5C 179.167,224.5 178.833,224.5 178.5,224.5C 178.547,217.889 179.547,211.556 181.5,205.5 Z"/></g>
<g><path style="opacity:1" fill="#c5c5c5" d="M 97.5,200.5 C 96.0401,202.463 94.3734,204.296 92.5,206C 93.4491,206.617 94.2825,206.451 95,205.5C 104.418,218.746 115.251,229.746 127.5,238.5C 126.629,241.112 125.963,243.779 125.5,246.5C 122.928,252.216 120.928,258.216 119.5,264.5C 118.883,264.611 118.383,264.944 118,265.5C 117.667,263.833 117.333,262.167 117,260.5C 112.771,256.638 108.271,253.138 103.5,250C 94.1667,240.667 84.8333,231.333 75.5,222C 78.3714,219.297 81.0381,216.464 83.5,213.5C 87.5593,208.438 92.226,204.105 97.5,200.5 Z"/></g>
<g><path style="opacity:1" fill="#c9c9c9" d="M 498.5,217.5 C 499.461,219.265 499.795,221.265 499.5,223.5C 501.175,240.784 501.842,258.117 501.5,275.5C 500.698,274.048 500.198,272.382 500,270.5C 496.78,277.72 491.613,282.887 484.5,286C 477.653,287.472 470.82,287.972 464,287.5C 461.685,286.473 459.352,285.473 457,284.5C 455.286,285.925 453.953,285.592 453,283.5C 439.823,285.056 426.99,288.722 414.5,294.5C 413.808,295.025 413.308,295.692 413,296.5C 412.667,290.5 412.333,284.5 412,278.5C 411.617,277.944 411.117,277.611 410.5,277.5C 410.5,275.5 410.5,273.5 410.5,271.5C 412.203,272.66 412.869,271.993 412.5,269.5C 422.383,265.094 432.383,261.761 442.5,259.5C 444.225,260.015 445.892,260.682 447.5,261.5C 450.24,266.214 453.073,270.881 456,275.5C 463.959,280.473 472.792,281.639 482.5,279C 485.333,277.5 487.5,275.333 489,272.5C 492.476,258.976 491.643,245.642 486.5,232.5C 488.341,225.82 491.507,219.82 496,214.5C 496.667,217.833 497.333,221.167 498,224.5C 498.497,222.19 498.663,219.857 498.5,217.5 Z"/></g>
<g><path style="opacity:1" fill="#4a4949" d="M 134.5,213.5 C 134.833,213.5 135.167,213.5 135.5,213.5C 134.806,218.915 133.14,223.915 130.5,228.5C 131.833,223.5 133.167,218.5 134.5,213.5 Z"/></g>
<g><path style="opacity:1" fill="#bebebe" d="M 83.5,213.5 C 81.0381,216.464 78.3714,219.297 75.5,222C 84.8333,231.333 94.1667,240.667 103.5,250C 108.271,253.138 112.771,256.638 117,260.5C 117.333,262.167 117.667,263.833 118,265.5C 118.383,264.944 118.883,264.611 119.5,264.5C 119.5,265.167 119.5,265.833 119.5,266.5C 118.677,268.987 117.677,271.321 116.5,273.5C 115.778,273.918 115.278,274.584 115,275.5C 114.837,273.324 114.004,271.491 112.5,270C 102.6,262.43 92.4333,255.263 82,248.5C 80.605,248.78 79.4383,249.447 78.5,250.5C 75.5524,255.936 73.0524,261.602 71,267.5C 66.1947,274.727 59.3614,278.06 50.5,277.5C 40.1027,272.948 36.436,265.282 39.5,254.5C 41.1667,253.167 42.8333,251.833 44.5,250.5C 46.0493,252.829 46.8827,255.496 47,258.5C 47.6543,257.304 48.1543,257.304 48.5,258.5C 48.1667,259.167 47.8333,259.833 47.5,260.5C 48.1667,260.833 48.8333,261.167 49.5,261.5C 48.2889,262.72 48.2889,263.887 49.5,265C 52,265.5 54.5,266 57,266.5C 59.4716,265.678 61.9716,265.011 64.5,264.5C 65.3226,261.129 66.4893,257.796 68,254.5C 68.8098,249.743 68.4764,245.076 67,240.5C 64.6174,238.045 61.9507,237.045 59,237.5C 57.2228,239.79 55.0562,241.457 52.5,242.5C 61.9234,231.739 72.2567,222.073 83.5,213.5 Z"/></g>
<g><path style="opacity:1" fill="#dedede" d="M 232.5,249.5 C 226.238,255.303 219.571,260.636 212.5,265.5C 210.868,264.092 209.202,262.592 207.5,261C 196.989,257.995 187.156,253.495 178,247.5C 177.178,249.788 176.511,252.122 176,254.5C 175.51,253.207 175.343,251.873 175.5,250.5C 176.489,243.872 177.156,237.205 177.5,230.5C 177.517,228.435 177.85,226.435 178.5,224.5C 178.833,224.5 179.167,224.5 179.5,224.5C 179.369,225.239 179.536,225.906 180,226.5C 180.333,225.167 180.667,223.833 181,222.5C 191.597,229.828 202.264,237.161 213,244.5C 216.996,241.818 221.162,241.318 225.5,243C 228.707,245.062 231.04,247.229 232.5,249.5 Z"/></g>
<g><path style="opacity:1" fill="#d07f65" d="M 377.5,236.5 C 377.167,236.5 376.833,236.5 376.5,236.5C 373.871,235.286 371.204,235.286 368.5,236.5C 371.741,230.009 374.741,230.009 377.5,236.5 Z"/></g>
<g><path style="opacity:1" fill="#c9c9c9" d="M 44.5,250.5 C 46.8333,247.5 49.5,244.833 52.5,242.5C 55.0562,241.457 57.2228,239.79 59,237.5C 61.9507,237.045 64.6174,238.045 67,240.5C 68.4764,245.076 68.8098,249.743 68,254.5C 66.4893,257.796 65.3226,261.129 64.5,264.5C 61.9716,265.011 59.4716,265.678 57,266.5C 54.5,266 52,265.5 49.5,265C 48.2889,263.887 48.2889,262.72 49.5,261.5C 48.8333,261.167 48.1667,260.833 47.5,260.5C 47.8333,259.833 48.1667,259.167 48.5,258.5C 48.1543,257.304 47.6543,257.304 47,258.5C 46.8827,255.496 46.0493,252.829 44.5,250.5 Z"/></g>
<g><path style="opacity:1" fill="#6d6d6c" d="M 177.5,230.5 C 177.156,237.205 176.489,243.872 175.5,250.5C 174.337,255.137 173.337,259.804 172.5,264.5C 173.106,252.881 174.772,241.548 177.5,230.5 Z"/></g>
<g><path style="opacity:1" fill="#d4d4d4" d="M 212.5,265.5 C 206.81,270.518 200.81,275.185 194.5,279.5C 187.694,276.846 181.194,273.513 175,269.5C 174.027,271.392 173.36,273.392 173,275.5C 172.503,272.854 172.336,270.187 172.5,267.5C 172.5,266.5 172.5,265.5 172.5,264.5C 173.337,259.804 174.337,255.137 175.5,250.5C 175.343,251.873 175.51,253.207 176,254.5C 176.511,252.122 177.178,249.788 178,247.5C 187.156,253.495 196.989,257.995 207.5,261C 209.202,262.592 210.868,264.092 212.5,265.5 Z"/></g>
<g><path style="opacity:1" fill="#db552f" d="M 376.5,236.5 C 376.948,242.842 378.614,248.842 381.5,254.5C 382.251,253.624 382.751,252.624 383,251.5C 384.807,256.42 386.307,261.42 387.5,266.5C 387.291,267.086 386.957,267.586 386.5,268C 367.753,273.584 348.92,278.75 330,283.5C 329.333,282.5 329.333,281.5 330,280.5C 331.481,279.529 332.315,278.196 332.5,276.5C 344.158,262.843 356.158,249.509 368.5,236.5C 371.204,235.286 373.871,235.286 376.5,236.5 Z"/></g>
<g><path style="opacity:1" fill="#b1b1b1" d="M 322.5,260.5 C 322.737,259.209 322.404,258.209 321.5,257.5C 330.772,248.73 339.938,239.73 349,230.5C 349.167,230.833 349.333,231.167 349.5,231.5C 340.251,241.05 331.251,250.717 322.5,260.5 Z"/></g>
<g><path style="opacity:1" fill="#999998" d="M 499.5,223.5 C 500.73,228.294 501.563,233.294 502,238.5C 502.827,251.673 502.66,264.673 501.5,277.5C 501.5,276.833 501.5,276.167 501.5,275.5C 501.842,258.117 501.175,240.784 499.5,223.5 Z"/></g>
<g><path style="opacity:1" fill="#535252" d="M 125.5,246.5 C 124.074,253.435 122.074,260.101 119.5,266.5C 119.5,265.833 119.5,265.167 119.5,264.5C 120.928,258.216 122.928,252.216 125.5,246.5 Z"/></g>
<g><path style="opacity:1" fill="#b3b3b3" d="M 116.5,273.5 C 115.79,279.633 114.456,285.633 112.5,291.5C 111.655,292.671 110.989,294.005 110.5,295.5C 99.6167,290.057 88.7833,284.39 78,278.5C 66.3333,284.168 54.1667,285.668 41.5,283C 36.2059,279.583 33.0393,274.75 32,268.5C 31.5,267.333 30.6667,266.5 29.5,266C 30.2524,265.329 30.5858,264.496 30.5,263.5C 33.473,260.527 36.473,257.527 39.5,254.5C 36.436,265.282 40.1027,272.948 50.5,277.5C 59.3614,278.06 66.1947,274.727 71,267.5C 73.0524,261.602 75.5524,255.936 78.5,250.5C 79.4383,249.447 80.605,248.78 82,248.5C 92.4333,255.263 102.6,262.43 112.5,270C 114.004,271.491 114.837,273.324 115,275.5C 115.278,274.584 115.778,273.918 116.5,273.5 Z"/></g>
<g><path style="opacity:1" fill="#c3c3c3" d="M 172.5,267.5 C 172.336,270.187 172.503,272.854 173,275.5C 173.36,273.392 174.027,271.392 175,269.5C 181.194,273.513 187.694,276.846 194.5,279.5C 186.21,286.113 177.877,292.779 169.5,299.5C 168.534,297.604 168.201,295.604 168.5,293.5C 169.268,292.737 169.768,291.737 170,290.5C 170.498,287.183 170.665,283.85 170.5,280.5C 170.335,277.15 170.502,273.817 171,270.5C 171.232,269.263 171.732,268.263 172.5,267.5 Z"/></g>
<g><path style="opacity:1" fill="#d1502b" d="M 376.5,236.5 C 376.833,236.5 377.167,236.5 377.5,236.5C 382.246,243.324 385.912,250.658 388.5,258.5C 388.5,260.833 388.5,263.167 388.5,265.5C 388.766,268.666 389.099,271.833 389.5,275C 389.371,276.981 388.704,278.647 387.5,280C 377.308,283.465 367.808,286.631 359,289.5C 358.439,288.978 357.772,288.645 357,288.5C 353.227,289.869 349.394,291.036 345.5,292C 336.538,292.726 327.705,294.226 319,296.5C 318.167,296.333 317.333,296.167 316.5,296C 317.582,294.67 318.249,293.17 318.5,291.5C 322.48,285.887 327.146,280.887 332.5,276.5C 332.315,278.196 331.481,279.529 330,280.5C 329.333,281.5 329.333,282.5 330,283.5C 348.92,278.75 367.753,273.584 386.5,268C 386.957,267.586 387.291,267.086 387.5,266.5C 386.307,261.42 384.807,256.42 383,251.5C 382.751,252.624 382.251,253.624 381.5,254.5C 378.614,248.842 376.948,242.842 376.5,236.5 Z"/></g>
<g><path style="opacity:1" fill="#a6a6a6" d="M 30.5,263.5 C 30.5858,264.496 30.2524,265.329 29.5,266C 30.6667,266.5 31.5,267.333 32,268.5C 33.0393,274.75 36.2059,279.583 41.5,283C 54.1667,285.668 66.3333,284.168 78,278.5C 88.7833,284.39 99.6167,290.057 110.5,295.5C 109.213,298.698 108.547,302.031 108.5,305.5C 107.123,309.045 106.123,312.712 105.5,316.5C 104.883,316.611 104.383,316.944 104,317.5C 102.209,315.971 100.542,314.304 99,312.5C 97.6054,313.815 96.6054,313.481 96,311.5C 93.8531,312.476 91.6864,312.309 89.5,311C 80.3418,305.95 71.0085,301.283 61.5,297C 53.0673,295.736 44.9007,293.569 37,290.5C 36.6667,290.833 36.3333,291.167 36,291.5C 34.3451,291.198 33.0118,289.864 32,287.5C 31.6667,287.833 31.3333,288.167 31,288.5C 29.4263,287.016 28.093,285.349 27,283.5C 25.8525,284.458 24.8525,284.125 24,282.5C 23.6667,285.5 23.3333,288.5 23,291.5C 22.8091,289.292 22.3091,287.292 21.5,285.5C 20.3982,281.253 20.2316,276.92 21,272.5C 24.0359,269.296 27.2026,266.296 30.5,263.5 Z"/></g>
<g><path style="opacity:1" fill="#be725a" d="M 388.5,258.5 C 391.201,262.25 392.534,266.583 392.5,271.5C 392.586,275.857 392.92,280.19 393.5,284.5C 392.173,278.21 390.506,271.876 388.5,265.5C 388.5,263.167 388.5,260.833 388.5,258.5 Z"/></g>
<g><path style="opacity:1" fill="#7e6057" d="M 392.5,271.5 C 393.856,274.577 394.689,277.91 395,281.5C 395.818,287.349 395.652,293.015 394.5,298.5C 394.818,293.968 394.485,289.634 393.5,285.5C 393.5,285.167 393.5,284.833 393.5,284.5C 392.92,280.19 392.586,275.857 392.5,271.5 Z"/></g>
<g><path style="opacity:1" fill="#c94d29" d="M 388.5,265.5 C 390.506,271.876 392.173,278.21 393.5,284.5C 393.5,284.833 393.5,285.167 393.5,285.5C 393.819,290.363 393.486,295.03 392.5,299.5C 392.859,297.234 392.192,295.401 390.5,294C 390.957,293.586 391.291,293.086 391.5,292.5C 389.159,290.307 387.825,290.474 387.5,293C 389.676,296.394 389.676,299.894 387.5,303.5C 380.759,306.437 373.759,307.937 366.5,308C 368.043,306.122 369.876,304.622 372,303.5C 372.808,301.421 372.641,299.421 371.5,297.5C 359.756,299.904 348.089,302.737 336.5,306C 325.812,307.224 315.146,308.224 304.5,309C 308.519,306.116 311.186,302.283 312.5,297.5C 314.167,295.167 316.167,293.167 318.5,291.5C 318.249,293.17 317.582,294.67 316.5,296C 317.333,296.167 318.167,296.333 319,296.5C 327.705,294.226 336.538,292.726 345.5,292C 349.394,291.036 353.227,289.869 357,288.5C 357.772,288.645 358.439,288.978 359,289.5C 367.808,286.631 377.308,283.465 387.5,280C 388.704,278.647 389.371,276.981 389.5,275C 389.099,271.833 388.766,268.666 388.5,265.5 Z"/></g>
<g><path style="opacity:1" fill="#b8b8b8" d="M 501.5,275.5 C 501.5,276.167 501.5,276.833 501.5,277.5C 501.313,282.845 500.98,288.178 500.5,293.5C 499.244,293.096 498.077,292.429 497,291.5C 469.616,299.257 442.616,307.924 416,317.5C 413.416,316.139 411.416,316.805 410,319.5C 409.503,316.854 409.336,314.187 409.5,311.5C 410.356,300.19 410.69,288.857 410.5,277.5C 411.117,277.611 411.617,277.944 412,278.5C 412.333,284.5 412.667,290.5 413,296.5C 413.308,295.692 413.808,295.025 414.5,294.5C 426.99,288.722 439.823,285.056 453,283.5C 453.953,285.592 455.286,285.925 457,284.5C 459.352,285.473 461.685,286.473 464,287.5C 470.82,287.972 477.653,287.472 484.5,286C 491.613,282.887 496.78,277.72 500,270.5C 500.198,272.382 500.698,274.048 501.5,275.5 Z"/></g>
<g><path style="opacity:1" fill="#c9c9c9" d="M 321.5,257.5 C 322.404,258.209 322.737,259.209 322.5,260.5C 309.81,274.522 296.81,288.189 283.5,301.5C 283.5,300.167 283.5,298.833 283.5,297.5C 282.448,297.649 281.448,297.483 280.5,297C 282,295.5 283.5,294 285,292.5C 285.333,292.833 285.667,293.167 286,293.5C 290.311,289.511 294.144,285.177 297.5,280.5C 305.458,272.842 313.458,265.176 321.5,257.5 Z"/></g>
<g><path style="opacity:1" fill="#81807f" d="M 170.5,280.5 C 170.665,283.85 170.498,287.183 170,290.5C 169.768,291.737 169.268,292.737 168.5,293.5C 168.77,288.972 169.437,284.639 170.5,280.5 Z"/></g>
<g><path style="opacity:1" fill="#b0b0b0" d="M 500.5,293.5 C 500.237,298.77 499.237,303.77 497.5,308.5C 496.732,309.263 496.232,310.263 496,311.5C 495.506,309.866 495.34,308.199 495.5,306.5C 471.498,312.098 447.831,318.932 424.5,327C 418.322,327.934 412.322,329.434 406.5,331.5C 406,332.5 405.5,333.5 405,334.5C 405.496,329.823 406.329,325.157 407.5,320.5C 407.676,317.273 408.343,314.273 409.5,311.5C 409.336,314.187 409.503,316.854 410,319.5C 411.416,316.805 413.416,316.139 416,317.5C 442.616,307.924 469.616,299.257 497,291.5C 498.077,292.429 499.244,293.096 500.5,293.5 Z"/></g>
<g><path style="opacity:1" fill="#9a9a9a" d="M 105.5,316.5 C 103.374,324.65 101.041,332.65 98.5,340.5C 82.0235,330.942 64.3569,324.108 45.5,320C 40.7187,317.183 35.552,315.35 30,314.5C 28.9889,315.056 28.1556,315.722 27.5,316.5C 24.1171,306.555 22.1171,296.221 21.5,285.5C 22.3091,287.292 22.8091,289.292 23,291.5C 23.3333,288.5 23.6667,285.5 24,282.5C 24.8525,284.125 25.8525,284.458 27,283.5C 28.093,285.349 29.4263,287.016 31,288.5C 31.3333,288.167 31.6667,287.833 32,287.5C 33.0118,289.864 34.3451,291.198 36,291.5C 36.3333,291.167 36.6667,290.833 37,290.5C 44.9007,293.569 53.0673,295.736 61.5,297C 71.0085,301.283 80.3418,305.95 89.5,311C 91.6864,312.309 93.8531,312.476 96,311.5C 96.6054,313.481 97.6054,313.815 99,312.5C 100.542,314.304 102.209,315.971 104,317.5C 104.383,316.944 104.883,316.611 105.5,316.5 Z"/></g>
<g><path style="opacity:1" fill="#c24a27" d="M 392.5,299.5 C 392.573,301.027 391.906,302.027 390.5,302.5C 389.658,306.457 388.491,310.457 387,314.5C 384.688,315.15 382.188,315.15 379.5,314.5C 378.808,315.025 378.308,315.692 378,316.5C 377.439,315.978 376.772,315.645 376,315.5C 371.056,317.176 366.223,319.009 361.5,321C 356.417,321.426 351.417,322.26 346.5,323.5C 346.167,323 345.833,322.5 345.5,322C 346.689,320.105 347.689,318.105 348.5,316C 353.167,315.667 357.833,315.333 362.5,315C 364.155,313.556 364.822,311.722 364.5,309.5C 357.806,311.087 351.472,312.754 345.5,314.5C 344.558,314.392 343.725,314.059 343,313.5C 340.881,315.742 338.381,316.075 335.5,314.5C 334.259,315.037 333.092,315.704 332,316.5C 320.815,315.297 309.648,315.63 298.5,317.5C 297.5,317.333 296.5,317.167 295.5,317C 296.973,316.29 297.64,315.124 297.5,313.5C 302.528,308.14 307.528,302.807 312.5,297.5C 311.186,302.283 308.519,306.116 304.5,309C 315.146,308.224 325.812,307.224 336.5,306C 348.089,302.737 359.756,299.904 371.5,297.5C 372.641,299.421 372.808,301.421 372,303.5C 369.876,304.622 368.043,306.122 366.5,308C 373.759,307.937 380.759,306.437 387.5,303.5C 389.676,299.894 389.676,296.394 387.5,293C 387.825,290.474 389.159,290.307 391.5,292.5C 391.291,293.086 390.957,293.586 390.5,294C 392.192,295.401 392.859,297.234 392.5,299.5 Z"/></g>
<g><path style="opacity:1" fill="#4f4f4f" d="M 112.5,291.5 C 111.741,296.43 110.408,301.097 108.5,305.5C 108.547,302.031 109.213,298.698 110.5,295.5C 110.989,294.005 111.655,292.671 112.5,291.5 Z"/></g>
<g><path style="opacity:1" fill="#909090" d="M 98.5,340.5 C 97.1538,346.903 95.4871,353.236 93.5,359.5C 92.7784,359.918 92.2784,360.584 92,361.5C 91.6905,360.234 91.1905,359.067 90.5,358C 72.2377,352.024 54.071,345.857 36,339.5C 35.7216,340.416 35.2216,341.082 34.5,341.5C 30.7497,333.58 28.4164,325.247 27.5,316.5C 28.1556,315.722 28.9889,315.056 30,314.5C 35.552,315.35 40.7187,317.183 45.5,320C 64.3569,324.108 82.0235,330.942 98.5,340.5 Z"/></g>
<g><path style="opacity:1" fill="#ba4624" d="M 390.5,302.5 C 390.666,307.511 390.499,312.511 390,317.5C 389.692,318.308 389.192,318.975 388.5,319.5C 387.004,315.665 386.004,315.665 385.5,319.5C 384.275,320.937 383.275,322.604 382.5,324.5C 378.936,325.966 375.27,327.132 371.5,328C 370.809,329.067 370.309,330.234 370,331.5C 369.326,330.422 368.326,329.755 367,329.5C 364.176,330.054 361.343,330.554 358.5,331C 357.333,331.5 356.5,332.333 356,333.5C 355.612,332.572 354.945,331.905 354,331.5C 350.208,332.438 346.375,333.104 342.5,333.5C 342.959,330.123 343.626,326.789 344.5,323.5C 332.049,325.452 319.549,327.119 307,328.5C 304.53,328.66 302.364,327.993 300.5,326.5C 299.672,327.415 298.672,328.081 297.5,328.5C 293.529,327.803 289.529,327.303 285.5,327C 286.823,326.184 287.489,325.017 287.5,323.5C 290.473,319.86 293.806,316.527 297.5,313.5C 297.64,315.124 296.973,316.29 295.5,317C 296.5,317.167 297.5,317.333 298.5,317.5C 309.648,315.63 320.815,315.297 332,316.5C 333.092,315.704 334.259,315.037 335.5,314.5C 338.381,316.075 340.881,315.742 343,313.5C 343.725,314.059 344.558,314.392 345.5,314.5C 351.472,312.754 357.806,311.087 364.5,309.5C 364.822,311.722 364.155,313.556 362.5,315C 357.833,315.333 353.167,315.667 348.5,316C 347.689,318.105 346.689,320.105 345.5,322C 345.833,322.5 346.167,323 346.5,323.5C 351.417,322.26 356.417,321.426 361.5,321C 366.223,319.009 371.056,317.176 376,315.5C 376.772,315.645 377.439,315.978 378,316.5C 378.308,315.692 378.808,315.025 379.5,314.5C 382.188,315.15 384.688,315.15 387,314.5C 388.491,310.457 389.658,306.457 390.5,302.5 Z"/></g>
<g><path style="opacity:1" fill="#a6a6a6" d="M 497.5,308.5 C 496.179,317.127 493.846,325.46 490.5,333.5C 489.778,333.082 489.278,332.416 489,331.5C 477.674,335.33 466.174,338.663 454.5,341.5C 452.443,341.576 450.277,341.576 448,341.5C 447.041,343.658 445.541,343.991 443.5,342.5C 442.353,342.818 441.519,343.484 441,344.5C 438.978,343.009 437.312,343.342 436,345.5C 433.2,344.557 430.366,344.724 427.5,346C 415.462,349.462 403.628,353.296 392,357.5C 391.536,356.906 391.369,356.239 391.5,355.5C 398.207,344.422 403.54,332.755 407.5,320.5C 406.329,325.157 405.496,329.823 405,334.5C 405.5,333.5 406,332.5 406.5,331.5C 412.322,329.434 418.322,327.934 424.5,327C 447.831,318.932 471.498,312.098 495.5,306.5C 495.34,308.199 495.506,309.866 496,311.5C 496.232,310.263 496.732,309.263 497.5,308.5 Z"/></g>
<g><path style="opacity:0.184" fill="#4c4c4c" d="M 519.5,268.5 C 520.54,306.88 511.54,342.38 492.5,375C 492.833,375.333 493.167,375.667 493.5,376C 491.423,379.455 489.09,382.622 486.5,385.5C 506.06,348.93 517.06,309.93 519.5,268.5 Z"/></g>
<g><path style="opacity:1" fill="#b34424" d="M 385.5,319.5 C 385.179,324.95 383.846,330.117 381.5,335C 378.509,335.145 376.842,336.645 376.5,339.5C 375.504,339.586 374.671,339.252 374,338.5C 372.946,340.754 371.446,341.087 369.5,339.5C 367.438,341.725 365.105,342.058 362.5,340.5C 360.908,342.562 359.075,342.895 357,341.5C 356.21,343.79 354.876,344.123 353,342.5C 351.779,343.272 350.779,344.272 350,345.5C 349.29,344.027 348.124,343.36 346.5,343.5C 346.725,345.716 345.892,347.383 344,348.5C 342.383,347.464 342.216,346.297 343.5,345C 341.801,344.607 340.301,345.107 339,346.5C 337.699,346.04 336.366,345.706 335,345.5C 327.194,347.199 319.361,347.532 311.5,346.5C 301.19,347.356 290.857,348.023 280.5,348.5C 275.907,348.621 271.574,347.954 267.5,346.5C 269.252,344.754 270.585,342.754 271.5,340.5C 276.129,334.203 281.462,328.537 287.5,323.5C 287.489,325.017 286.823,326.184 285.5,327C 289.529,327.303 293.529,327.803 297.5,328.5C 298.672,328.081 299.672,327.415 300.5,326.5C 302.364,327.993 304.53,328.66 307,328.5C 319.549,327.119 332.049,325.452 344.5,323.5C 343.626,326.789 342.959,330.123 342.5,333.5C 346.375,333.104 350.208,332.438 354,331.5C 354.945,331.905 355.612,332.572 356,333.5C 356.5,332.333 357.333,331.5 358.5,331C 361.343,330.554 364.176,330.054 367,329.5C 368.326,329.755 369.326,330.422 370,331.5C 370.309,330.234 370.809,329.067 371.5,328C 375.27,327.132 378.936,325.966 382.5,324.5C 383.275,322.604 384.275,320.937 385.5,319.5 Z"/></g>
<g><path style="opacity:1" fill="#b2b2b2" d="M 297.5,280.5 C 294.144,285.177 290.311,289.511 286,293.5C 285.667,293.167 285.333,292.833 285,292.5C 283.5,294 282,295.5 280.5,297C 281.448,297.483 282.448,297.649 283.5,297.5C 283.5,298.833 283.5,300.167 283.5,301.5C 266.833,318.833 249.833,335.833 232.5,352.5C 228.481,350.797 224.481,349.964 220.5,350C 222.298,347.528 224.632,345.861 227.5,345C 229.334,342.337 231.334,339.837 233.5,337.5C 254.828,318.506 276.161,299.506 297.5,280.5 Z"/></g>
<g><path style="opacity:0.322" fill="#353434" d="M 11.5,327.5 C 12.4972,327.47 13.1639,327.97 13.5,329C 15.481,335.106 17.1477,341.272 18.5,347.5C 15.3943,341.187 13.0609,334.52 11.5,327.5 Z"/></g>
<g><path style="opacity:1" fill="#aa4022" d="M 376.5,339.5 C 373.848,343.482 370.848,347.149 367.5,350.5C 365.535,352.628 363.368,354.628 361,356.5C 360.5,356.333 360,356.167 359.5,356C 362.194,353.448 361.527,352.281 357.5,352.5C 357.5,353.833 357.5,355.167 357.5,356.5C 355.5,356.5 353.5,356.5 351.5,356.5C 348.707,362.904 343.707,365.737 336.5,365C 339.374,362.043 341.707,358.71 343.5,355C 339.728,354.555 336.228,355.389 333,357.5C 326.868,356.863 320.702,356.53 314.5,356.5C 302.467,356.805 290.467,357.305 278.5,358C 272.889,357.431 267.556,355.931 262.5,353.5C 263.453,350.57 265.12,348.237 267.5,346.5C 271.574,347.954 275.907,348.621 280.5,348.5C 290.857,348.023 301.19,347.356 311.5,346.5C 319.361,347.532 327.194,347.199 335,345.5C 336.366,345.706 337.699,346.04 339,346.5C 340.301,345.107 341.801,344.607 343.5,345C 342.216,346.297 342.383,347.464 344,348.5C 345.892,347.383 346.725,345.716 346.5,343.5C 348.124,343.36 349.29,344.027 350,345.5C 350.779,344.272 351.779,343.272 353,342.5C 354.876,344.123 356.21,343.79 357,341.5C 359.075,342.895 360.908,342.562 362.5,340.5C 365.105,342.058 367.438,341.725 369.5,339.5C 371.446,341.087 372.946,340.754 374,338.5C 374.671,339.252 375.504,339.586 376.5,339.5 Z"/></g>
<g><path style="opacity:1" fill="#9a9a9a" d="M 490.5,333.5 C 487.97,342.751 484.637,351.751 480.5,360.5C 466.552,361.903 452.885,364.736 439.5,369C 415.478,373.771 391.478,378.604 367.5,383.5C 366.893,383.376 366.56,383.043 366.5,382.5C 375.908,374.428 384.241,365.428 391.5,355.5C 391.369,356.239 391.536,356.906 392,357.5C 403.628,353.296 415.462,349.462 427.5,346C 430.366,344.724 433.2,344.557 436,345.5C 437.312,343.342 438.978,343.009 441,344.5C 441.519,343.484 442.353,342.818 443.5,342.5C 445.541,343.991 447.041,343.658 448,341.5C 450.277,341.576 452.443,341.576 454.5,341.5C 466.174,338.663 477.674,335.33 489,331.5C 489.278,332.416 489.778,333.082 490.5,333.5 Z"/></g>
<g><path style="opacity:1" fill="#a4442b" d="M 393.5,285.5 C 394.485,289.634 394.818,293.968 394.5,298.5C 391.316,330.37 376.649,355.537 350.5,374C 349.552,374.483 348.552,374.649 347.5,374.5C 347.337,372.143 347.503,369.81 348,367.5C 350.986,364.067 354.486,362.233 358.5,362C 362.503,358.845 365.503,355.012 367.5,350.5C 370.848,347.149 373.848,343.482 376.5,339.5C 376.842,336.645 378.509,335.145 381.5,335C 383.846,330.117 385.179,324.95 385.5,319.5C 386.004,315.665 387.004,315.665 388.5,319.5C 389.192,318.975 389.692,318.308 390,317.5C 390.499,312.511 390.666,307.511 390.5,302.5C 391.906,302.027 392.573,301.027 392.5,299.5C 393.486,295.03 393.819,290.363 393.5,285.5 Z"/></g>
<g><path style="opacity:1" fill="#818181" d="M 93.5,359.5 C 92.8615,365.256 91.6948,370.923 90,376.5C 89.2432,378.315 88.4098,379.981 87.5,381.5C 86.7784,381.918 86.2784,382.584 86,383.5C 74.3541,378.014 62.3541,373.347 50,369.5C 49.8595,371.256 50.3595,372.922 51.5,374.5C 51.3764,375.107 51.0431,375.44 50.5,375.5C 44.1271,364.75 38.7938,353.416 34.5,341.5C 35.2216,341.082 35.7216,340.416 36,339.5C 54.071,345.857 72.2377,352.024 90.5,358C 91.1905,359.067 91.6905,360.234 92,361.5C 92.2784,360.584 92.7784,359.918 93.5,359.5 Z"/></g>
<g><path style="opacity:1" fill="#a13e22" d="M 271.5,340.5 C 270.585,342.754 269.252,344.754 267.5,346.5C 265.12,348.237 263.453,350.57 262.5,353.5C 267.556,355.931 272.889,357.431 278.5,358C 290.467,357.305 302.467,356.805 314.5,356.5C 320.702,356.53 326.868,356.863 333,357.5C 336.228,355.389 339.728,354.555 343.5,355C 341.707,358.71 339.374,362.043 336.5,365C 343.707,365.737 348.707,362.904 351.5,356.5C 353.5,356.5 355.5,356.5 357.5,356.5C 357.5,355.167 357.5,353.833 357.5,352.5C 361.527,352.281 362.194,353.448 359.5,356C 360,356.167 360.5,356.333 361,356.5C 363.368,354.628 365.535,352.628 367.5,350.5C 365.503,355.012 362.503,358.845 358.5,362C 354.486,362.233 350.986,364.067 348,367.5C 347.503,369.81 347.337,372.143 347.5,374.5C 343.918,372.583 341.585,373.583 340.5,377.5C 338.161,378.724 335.828,378.724 333.5,377.5C 334.879,376.137 334.713,375.137 333,374.5C 331.779,375.272 330.779,376.272 330,377.5C 325.5,376.555 321,376.888 316.5,378.5C 313.149,378.012 312.816,376.845 315.5,375C 306.159,374.985 296.826,375.485 287.5,376.5C 279.568,376.19 271.734,375.19 264,373.5C 262.779,374.272 261.779,375.272 261,376.5C 260.691,375.234 260.191,374.067 259.5,373C 257.134,372.438 254.801,372.604 252.5,373.5C 250.927,373.248 249.594,372.582 248.5,371.5C 246.683,369.988 245.683,367.988 245.5,365.5C 253.507,356.494 262.173,348.16 271.5,340.5 Z"/></g>
<g><path style="opacity:1" fill="#944832" d="M 245.5,365.5 C 245.683,367.988 246.683,369.988 248.5,371.5C 249.63,373.315 250.296,375.315 250.5,377.5C 254.002,377.076 256.335,378.41 257.5,381.5C 251.654,379.159 246.154,376.159 241,372.5C 240.968,369.332 242.468,366.999 245.5,365.5 Z"/></g>
<g><path style="opacity:1" fill="#767676" d="M 87.5,381.5 C 85.4977,393.216 82.3311,404.55 78,415.5C 67.0254,403.368 57.8587,390.034 50.5,375.5C 51.0431,375.44 51.3764,375.107 51.5,374.5C 50.3595,372.922 49.8595,371.256 50,369.5C 62.3541,373.347 74.3541,378.014 86,383.5C 86.2784,382.584 86.7784,381.918 87.5,381.5 Z"/></g>
<g><path style="opacity:1" fill="#983d23" d="M 248.5,371.5 C 249.594,372.582 250.927,373.248 252.5,373.5C 254.801,372.604 257.134,372.438 259.5,373C 260.191,374.067 260.691,375.234 261,376.5C 261.779,375.272 262.779,374.272 264,373.5C 271.734,375.19 279.568,376.19 287.5,376.5C 296.826,375.485 306.159,374.985 315.5,375C 312.816,376.845 313.149,378.012 316.5,378.5C 321,376.888 325.5,376.555 330,377.5C 330.779,376.272 331.779,375.272 333,374.5C 334.713,375.137 334.879,376.137 333.5,377.5C 335.828,378.724 338.161,378.724 340.5,377.5C 341.585,373.583 343.918,372.583 347.5,374.5C 341.322,378.783 334.655,382.117 327.5,384.5C 320.142,382.521 313.142,383.354 306.5,387C 301.508,388.391 296.508,388.557 291.5,387.5C 292.804,385.984 292.304,385.318 290,385.5C 282.835,386.715 275.669,386.715 268.5,385.5C 264.721,384.442 261.054,383.109 257.5,381.5C 256.335,378.41 254.002,377.076 250.5,377.5C 250.296,375.315 249.63,373.315 248.5,371.5 Z"/></g>
<g><path style="opacity:1" fill="#949494" d="M 233.5,337.5 C 231.334,339.837 229.334,342.337 227.5,345C 224.632,345.861 222.298,347.528 220.5,350C 224.481,349.964 228.481,350.797 232.5,352.5C 221.802,364.199 210.468,375.199 198.5,385.5C 194.673,383.871 190.673,382.538 186.5,381.5C 185.446,381.68 184.446,382.013 183.5,382.5C 182.537,382.03 182.537,381.363 183.5,380.5C 199.572,365.425 216.238,351.092 233.5,337.5 Z"/></g>
<g><path style="opacity:1" fill="#8d8d8d" d="M 480.5,360.5 C 475.83,371.185 470.164,381.185 463.5,390.5C 462.739,389.609 461.739,388.942 460.5,388.5C 413.615,399.298 366.115,405.298 318,406.5C 317.167,406.333 316.333,406.167 315.5,406C 316.737,405.768 317.737,405.268 318.5,404.5C 326.688,401.603 335.021,398.77 343.5,396C 351.222,391.477 358.888,386.977 366.5,382.5C 366.56,383.043 366.893,383.376 367.5,383.5C 391.478,378.604 415.478,373.771 439.5,369C 452.885,364.736 466.552,361.903 480.5,360.5 Z"/></g>
<g><path style="opacity:1" fill="#834532" d="M 327.5,384.5 C 317.317,388.385 306.65,390.052 295.5,389.5C 286.068,390.189 277.068,388.856 268.5,385.5C 275.669,386.715 282.835,386.715 290,385.5C 292.304,385.318 292.804,385.984 291.5,387.5C 296.508,388.557 301.508,388.391 306.5,387C 313.142,383.354 320.142,382.521 327.5,384.5 Z"/></g>
<g><path style="opacity:1" fill="#868686" d="M 318.5,404.5 C 317.737,405.268 316.737,405.768 315.5,406C 316.333,406.167 317.167,406.333 318,406.5C 366.115,405.298 413.615,399.298 460.5,388.5C 461.739,388.942 462.739,389.609 463.5,390.5C 460.235,396.701 456.235,402.368 451.5,407.5C 449.954,406.364 448.121,405.698 446,405.5C 397.357,413.804 348.357,417.804 299,417.5C 279.442,416.761 259.942,415.261 240.5,413C 228.781,411.742 217.281,409.576 206,406.5C 205.163,408.007 203.996,408.507 202.5,408C 203.71,406.961 204.71,405.794 205.5,404.5C 212.184,396.983 219.35,389.983 227,383.5C 247.156,398.747 269.989,406.414 295.5,406.5C 303.121,405.285 310.787,404.619 318.5,404.5 Z"/></g>
<g><path style="opacity:1" fill="#808080" d="M 183.5,380.5 C 182.537,381.363 182.537,382.03 183.5,382.5C 184.446,382.013 185.446,381.68 186.5,381.5C 190.673,382.538 194.673,383.871 198.5,385.5C 190.118,394.848 181.118,403.515 171.5,411.5C 166.556,410.014 161.556,408.68 156.5,407.5C 155.228,407.57 154.062,407.903 153,408.5C 152.536,407.906 152.369,407.239 152.5,406.5C 162.242,397.088 172.576,388.421 183.5,380.5 Z"/></g>
<g><path style="opacity:1" fill="#7f7f7f" d="M 205.5,404.5 C 204.71,405.794 203.71,406.961 202.5,408C 203.996,408.507 205.163,408.007 206,406.5C 217.281,409.576 228.781,411.742 240.5,413C 259.942,415.261 279.442,416.761 299,417.5C 348.357,417.804 397.357,413.804 446,405.5C 448.121,405.698 449.954,406.364 451.5,407.5C 446.627,413.917 441.293,419.917 435.5,425.5C 432.25,424.873 428.917,424.539 425.5,424.5C 398.686,426.631 371.853,427.964 345,428.5C 317.625,428.498 290.292,428.498 263,428.5C 261.82,427.316 260.32,426.649 258.5,426.5C 253.105,425.942 247.605,425.942 242,426.5C 239.614,424.909 236.947,423.909 234,423.5C 220.604,423.505 207.104,421.338 193.5,417C 195.464,415.549 196.797,413.716 197.5,411.5C 199.569,408.427 202.236,406.094 205.5,404.5 Z"/></g>
<g><path style="opacity:1" fill="#717171" d="M 152.5,406.5 C 152.369,407.239 152.536,407.906 153,408.5C 154.062,407.903 155.228,407.57 156.5,407.5C 161.556,408.68 166.556,410.014 171.5,411.5C 162.214,420.451 152.881,429.451 143.5,438.5C 142.914,429.442 143.748,420.442 146,411.5C 147.777,409.21 149.944,407.543 152.5,406.5 Z"/></g>
<g><path style="opacity:1" fill="#797979" d="M 197.5,411.5 C 196.797,413.716 195.464,415.549 193.5,417C 207.104,421.338 220.604,423.505 234,423.5C 236.947,423.909 239.614,424.909 242,426.5C 247.605,425.942 253.105,425.942 258.5,426.5C 260.32,426.649 261.82,427.316 263,428.5C 290.292,428.498 317.625,428.498 345,428.5C 371.853,427.964 398.686,426.631 425.5,424.5C 428.917,424.539 432.25,424.873 435.5,425.5C 431.349,430.597 426.683,435.263 421.5,439.5C 419.712,439.029 417.878,438.696 416,438.5C 403.474,439.613 391.308,440.28 379.5,440.5C 353.988,437.961 328.488,437.961 303,440.5C 263.702,439.761 224.869,435.094 186.5,426.5C 185.136,427.043 183.803,427.21 182.5,427C 183.823,426.184 184.489,425.017 184.5,423.5C 188.807,419.528 193.141,415.528 197.5,411.5 Z"/></g>
<g><path style="opacity:1" fill="#737373" d="M 184.5,423.5 C 184.489,425.017 183.823,426.184 182.5,427C 183.803,427.21 185.136,427.043 186.5,426.5C 224.869,435.094 263.702,439.761 303,440.5C 328.488,437.961 353.988,437.961 379.5,440.5C 391.308,440.28 403.474,439.613 416,438.5C 417.878,438.696 419.712,439.029 421.5,439.5C 415.721,445.22 409.387,450.22 402.5,454.5C 399.402,453.179 395.902,452.512 392,452.5C 364.683,450.49 337.35,450.157 310,451.5C 303.724,451.415 297.558,450.748 291.5,449.5C 252.35,450.895 213.35,446.062 174.5,435C 175.252,434.329 175.586,433.496 175.5,432.5C 178.167,429.167 181.167,426.167 184.5,423.5 Z"/></g>
<g><path style="opacity:1" fill="#6d6d6d" d="M 175.5,432.5 C 175.586,433.496 175.252,434.329 174.5,435C 213.35,446.062 252.35,450.895 291.5,449.5C 297.558,450.748 303.724,451.415 310,451.5C 337.35,450.157 364.683,450.49 392,452.5C 395.902,452.512 399.402,453.179 402.5,454.5C 397.225,459.479 391.225,463.479 384.5,466.5C 377.886,465.144 371.219,463.978 364.5,463C 296.989,466.646 230.323,460.979 164.5,446C 163.748,445.329 163.414,444.496 163.5,443.5C 166.874,439.124 170.874,435.458 175.5,432.5 Z"/></g>
<g><path style="opacity:1" fill="#666666" d="M 163.5,443.5 C 163.414,444.496 163.748,445.329 164.5,446C 230.323,460.979 296.989,466.646 364.5,463C 371.219,463.978 377.886,465.144 384.5,466.5C 376.388,471.889 367.722,476.222 358.5,479.5C 355.903,479.279 355.903,478.779 358.5,478C 347.685,477.12 336.851,476.62 326,476.5C 267.116,479.762 209.282,473.428 152.5,457.5C 150.668,458.248 149.001,459.248 147.5,460.5C 146.893,460.376 146.56,460.043 146.5,459.5C 151.537,453.462 157.203,448.129 163.5,443.5 Z"/></g>
<g><path style="opacity:1" fill="#606060" d="M 358.5,479.5 C 350.562,483.629 342.228,486.963 333.5,489.5C 325.191,488.714 316.858,488.88 308.5,490C 275.94,491.056 243.606,488.723 211.5,483C 192.813,479.778 174.146,476.778 155.5,474C 157.332,474.748 158.999,475.748 160.5,477C 159.906,477.464 159.239,477.631 158.5,477.5C 152.243,475.038 146.243,472.038 140.5,468.5C 139.386,467.277 139.219,465.944 140,464.5C 141.926,462.461 144.093,460.794 146.5,459.5C 146.56,460.043 146.893,460.376 147.5,460.5C 149.001,459.248 150.668,458.248 152.5,457.5C 209.282,473.428 267.116,479.762 326,476.5C 336.851,476.62 347.685,477.12 358.5,478C 355.903,478.779 355.903,479.279 358.5,479.5 Z"/></g>
<g><path style="opacity:1" fill="#595959" d="M 333.5,489.5 C 279.783,506.654 226.45,505.154 173.5,485C 168.202,483.018 163.202,480.518 158.5,477.5C 159.239,477.631 159.906,477.464 160.5,477C 158.999,475.748 157.332,474.748 155.5,474C 174.146,476.778 192.813,479.778 211.5,483C 243.606,488.723 275.94,491.056 308.5,490C 316.858,488.88 325.191,488.714 333.5,489.5 Z"/></g>
<g><path style="opacity:0.589" fill="#262626" d="M 165.5,499.5 C 192.205,509.411 219.872,515.577 248.5,518C 246.618,518.198 244.952,518.698 243.5,519.5C 215.938,518.443 189.938,511.777 165.5,499.5 Z"/></g>
<g><path style="opacity:0.639" fill="#242424" d="M 325.5,509.5 C 309.766,515.114 293.432,518.447 276.5,519.5C 276.414,518.504 276.748,517.671 277.5,517C 293.444,515.676 309.11,512.843 324.5,508.5C 325.107,508.624 325.44,508.957 325.5,509.5 Z"/></g>
</svg>
